<?xml version='1.0' encoding='utf-8'?>
<svg height="275.60mm" viewBox="0.0 0.0 262.90 275.60" width="262.90mm" xmlns="http://www.w3.org/2000/svg" xmlns:cc="http://creativecommons.org/ns#" xmlns:dc="http://purl.org/dc/elements/1.1/" xmlns:inkscape="http://www.inkscape.org/namespaces/inkscape" xmlns:rdf="http://www.w3.org/1999/02/22-rdf-syntax-ns#" xmlns:svg="http://www.w3.org/2000/svg" xmlns:xlink="http://www.w3.org/1999/xlink">
<!--
ABox - A simple Box


This box is kept simple on purpose. If you need more features have a look at the UniversalBox.


Created with Boxes.py (https://boxes.hackerspace-bamberg.de/)
Creation date: 2025-04-15 19:15:53
Command line (remove spaces between dashes): boxes ABox - -x=120 - -y=120 - -h=120 - -bottom_edge=e - -thickness=5 - -labels=0
Url: https://boxes.hackerspace-bamberg.de/ABox?FingerJoint_style=rectangular&FingerJoint_surroundingspaces=2.0&FingerJoint_bottom_lip=0.0&FingerJoint_edge_width=1.0&FingerJoint_extra_length=0.0&FingerJoint_finger=2.0&FingerJoint_play=0.0&FingerJoint_space=2.0&FingerJoint_width=1.0&Lid_handle=none&Lid_style=none&Lid_handle_height=8.0&Lid_height=4.0&Lid_play=0.1&x=120&y=120&h=120&outside=0&outside=1&bottom_edge=e&thickness=5&format=svg&tabs=0.0&qr_code=0&debug=0&labels=0&reference=100.0&inner_corners=loop&burn=0.1&language=en&render=2
Url short: https://boxes.hackerspace-bamberg.de/ABox?x=120&y=120&h=120&bottom_edge=e&thickness=5&labels=0
SettingsUrl: https://boxes.hackerspace-bamberg.de/ABox?FingerJoint_style=rectangular&FingerJoint_surroundingspaces=2.0&FingerJoint_bottom_lip=0.0&FingerJoint_edge_width=1.0&FingerJoint_extra_length=0.0&FingerJoint_finger=2.0&FingerJoint_play=0.0&FingerJoint_space=2.0&FingerJoint_width=1.0&Lid_handle=none&Lid_style=none&Lid_handle_height=8.0&Lid_height=4.0&Lid_play=0.1&x=120&y=120&h=120&outside=0&outside=1&bottom_edge=e&thickness=5&format=svg&tabs=0.0&qr_code=0&debug=0&labels=0&reference=100.0&inner_corners=loop&burn=0.1&language=en&render=2
SettingsUrl short: https://boxes.hackerspace-bamberg.de/ABox?x=120&y=120&h=120&bottom_edge=e&thickness=5&labels=0
-->
<title>ABox</title>
<metadata>
<rdf:RDF><cc:Work>
<dc:title>Box - ABox</dc:title>
<dc:date>2025-04-15 19:15:53</dc:date>
<dc:source>https://boxes.hackerspace-bamberg.de/ABox?FingerJoint_style=rectangular&amp;FingerJoint_surroundingspaces=2.0&amp;FingerJoint_bottom_lip=0.0&amp;FingerJoint_edge_width=1.0&amp;FingerJoint_extra_length=0.0&amp;FingerJoint_finger=2.0&amp;FingerJoint_play=0.0&amp;FingerJoint_space=2.0&amp;FingerJoint_width=1.0&amp;Lid_handle=none&amp;Lid_style=none&amp;Lid_handle_height=8.0&amp;Lid_height=4.0&amp;Lid_play=0.1&amp;x=120&amp;y=120&amp;h=120&amp;outside=0&amp;outside=1&amp;bottom_edge=e&amp;thickness=5&amp;format=svg&amp;tabs=0.0&amp;qr_code=0&amp;debug=0&amp;labels=0&amp;reference=100.0&amp;inner_corners=loop&amp;burn=0.1&amp;language=en&amp;render=2</dc:source>
<dc:source>https://boxes.hackerspace-bamberg.de/ABox?x=120&amp;y=120&amp;h=120&amp;bottom_edge=e&amp;thickness=5&amp;labels=0</dc:source>
<dc:description>A simple Box

This box is kept simple on purpose. If you need more features have a look at the UniversalBox.

Created with Boxes.py (https://boxes.hackerspace-bamberg.de/)
Command line: boxes ABox --FingerJoint_style=rectangular --FingerJoint_surroundingspaces=2.0 --FingerJoint_bottom_lip=0.0 --FingerJoint_edge_width=1.0 --FingerJoint_extra_length=0.0 --FingerJoint_finger=2.0 --FingerJoint_play=0.0 --FingerJoint_space=2.0 --FingerJoint_width=1.0 --Lid_handle=none --Lid_style=none --Lid_handle_height=8.0 --Lid_height=4.0 --Lid_play=0.1 --x=120 --y=120 --h=120 --outside=0 --outside=1 --bottom_edge=e --thickness=5 --format=svg --tabs=0.0 --qr_code=0 --debug=0 --labels=0 --reference=100.0 --inner_corners=loop --burn=0.1
Command line short: boxes ABox --x=120 --y=120 --h=120 --bottom_edge=e --thickness=5 --labels=0
Url: https://boxes.hackerspace-bamberg.de/ABox?FingerJoint_style=rectangular&amp;FingerJoint_surroundingspaces=2.0&amp;FingerJoint_bottom_lip=0.0&amp;FingerJoint_edge_width=1.0&amp;FingerJoint_extra_length=0.0&amp;FingerJoint_finger=2.0&amp;FingerJoint_play=0.0&amp;FingerJoint_space=2.0&amp;FingerJoint_width=1.0&amp;Lid_handle=none&amp;Lid_style=none&amp;Lid_handle_height=8.0&amp;Lid_height=4.0&amp;Lid_play=0.1&amp;x=120&amp;y=120&amp;h=120&amp;outside=0&amp;outside=1&amp;bottom_edge=e&amp;thickness=5&amp;format=svg&amp;tabs=0.0&amp;qr_code=0&amp;debug=0&amp;labels=0&amp;reference=100.0&amp;inner_corners=loop&amp;burn=0.1&amp;language=en&amp;render=2
Url short: https://boxes.hackerspace-bamberg.de/ABox?x=120&amp;y=120&amp;h=120&amp;bottom_edge=e&amp;thickness=5&amp;labels=0
SettingsUrl: https://boxes.hackerspace-bamberg.de/ABox?FingerJoint_style=rectangular&amp;FingerJoint_surroundingspaces=2.0&amp;FingerJoint_bottom_lip=0.0&amp;FingerJoint_edge_width=1.0&amp;FingerJoint_extra_length=0.0&amp;FingerJoint_finger=2.0&amp;FingerJoint_play=0.0&amp;FingerJoint_space=2.0&amp;FingerJoint_width=1.0&amp;Lid_handle=none&amp;Lid_style=none&amp;Lid_handle_height=8.0&amp;Lid_height=4.0&amp;Lid_play=0.1&amp;x=120&amp;y=120&amp;h=120&amp;outside=0&amp;outside=1&amp;bottom_edge=e&amp;thickness=5&amp;format=svg&amp;tabs=0.0&amp;qr_code=0&amp;debug=0&amp;labels=0&amp;reference=100.0&amp;inner_corners=loop&amp;burn=0.1&amp;language=en&amp;render=2
SettingsUrl short: https://boxes.hackerspace-bamberg.de/ABox?x=120&amp;y=120&amp;h=120&amp;bottom_edge=e&amp;thickness=5&amp;labels=0
</dc:description>
</cc:Work></rdf:RDF></metadata>
<g id="p-0" style="fill:none;stroke-linecap:round;stroke-linejoin:round;">
  <path d="M 10.100 265.600 H 110.100 V 255.600 H 10.100 V 265.600 Z" stroke="rgb(0,0,0)" stroke-width="0.20" />
  <text dominant-baseline="hanging" font-size="6px" style="font-family: sans-serif ; font-weight: normal; font-style: normal; fill: rgb(255,0,0)" text-anchor="middle" transform="matrix( 1.000 0.000 0.000 1.000 60.100 257.600 )">100.0mm, burn:0.10mm</text>
</g>
<g id="p-1" style="fill:none;stroke-linecap:round;stroke-linejoin:round;">
  <path d="M 15.100 252.900 H 125.100 H 130.100 C 130.155 252.900 130.200 252.855 130.200 252.800 V 237.800 C 130.200 237.745 130.155 237.700 130.100 237.700 H 125.200 C 125.100 237.700 125.200 237.800 125.200 237.700 V 227.900 C 125.200 227.800 125.100 227.900 125.200 227.900 H 130.100 C 130.155 227.900 130.200 227.855 130.200 227.800 V 217.800 C 130.200 217.745 130.155 217.700 130.100 217.700 H 125.200 C 125.100 217.700 125.200 217.800 125.200 217.700 V 207.900 C 125.200 207.800 125.100 207.900 125.200 207.900 H 130.100 C 130.155 207.900 130.200 207.855 130.200 207.800 V 197.800 C 130.200 197.745 130.155 197.700 130.100 197.700 H 125.200 C 125.100 197.700 125.200 197.800 125.200 197.700 V 187.900 C 125.200 187.800 125.100 187.900 125.200 187.900 H 130.100 C 130.155 187.900 130.200 187.855 130.200 187.800 V 177.800 C 130.200 177.745 130.155 177.700 130.100 177.700 H 125.200 C 125.100 177.700 125.200 177.800 125.200 177.700 V 167.900 C 125.200 167.800 125.100 167.900 125.200 167.900 H 130.100 C 130.155 167.900 130.200 167.855 130.200 167.800 V 157.800 C 130.200 157.745 130.155 157.700 130.100 157.700 H 125.200 C 125.100 157.700 125.200 157.800 125.200 157.700 V 147.900 C 125.200 147.800 125.100 147.900 125.200 147.900 H 130.100 C 130.155 147.900 130.200 147.855 130.200 147.800 V 132.800 C 130.200 132.745 130.155 132.700 130.100 132.700 H 125.100 H 15.100 H 10.100 C 10.045 132.700 10.000 132.745 10.000 132.800 V 147.800 C 10.000 147.855 10.045 147.900 10.100 147.900 H 15.000 C 15.100 147.900 15.000 147.800 15.000 147.900 V 157.700 C 15.000 157.800 15.100 157.700 15.000 157.700 H 10.100 C 10.045 157.700 10.000 157.745 10.000 157.800 V 167.800 C 10.000 167.855 10.045 167.900 10.100 167.900 H 15.000 C 15.100 167.900 15.000 167.800 15.000 167.900 V 177.700 C 15.000 177.800 15.100 177.700 15.000 177.700 H 10.100 C 10.045 177.700 10.000 177.745 10.000 177.800 V 187.800 C 10.000 187.855 10.045 187.900 10.100 187.900 H 15.000 C 15.100 187.900 15.000 187.800 15.000 187.900 V 197.700 C 15.000 197.800 15.100 197.700 15.000 197.700 H 10.100 C 10.045 197.700 10.000 197.745 10.000 197.800 V 207.800 C 10.000 207.855 10.045 207.900 10.100 207.900 H 15.000 C 15.100 207.900 15.000 207.800 15.000 207.900 V 217.700 C 15.000 217.800 15.100 217.700 15.000 217.700 H 10.100 C 10.045 217.700 10.000 217.745 10.000 217.800 V 227.800 C 10.000 227.855 10.045 227.900 10.100 227.900 H 15.000 C 15.100 227.900 15.000 227.800 15.000 227.900 V 237.700 C 15.000 237.800 15.100 237.700 15.000 237.700 H 10.100 C 10.045 237.700 10.000 237.745 10.000 237.800 V 252.800 C 10.000 252.855 10.045 252.900 10.100 252.900 H 15.100 Z" stroke="rgb(0,0,0)" stroke-width="0.20" />
</g>
<g id="p-2" style="fill:none;stroke-linecap:round;stroke-linejoin:round;">
  <path d="M 15.100 130.200 H 125.100 H 130.100 C 130.155 130.200 130.200 130.155 130.200 130.100 V 115.100 C 130.200 115.045 130.155 115.000 130.100 115.000 H 125.200 C 125.100 115.000 125.200 115.100 125.200 115.000 V 105.200 C 125.200 105.100 125.100 105.200 125.200 105.200 H 130.100 C 130.155 105.200 130.200 105.155 130.200 105.100 V 95.100 C 130.200 95.045 130.155 95.000 130.100 95.000 H 125.200 C 125.100 95.000 125.200 95.100 125.200 95.000 V 85.200 C 125.200 85.100 125.100 85.200 125.200 85.200 H 130.100 C 130.155 85.200 130.200 85.155 130.200 85.100 V 75.100 C 130.200 75.045 130.155 75.000 130.100 75.000 H 125.200 C 125.100 75.000 125.200 75.100 125.200 75.000 V 65.200 C 125.200 65.100 125.100 65.200 125.200 65.200 H 130.100 C 130.155 65.200 130.200 65.155 130.200 65.100 V 55.100 C 130.200 55.045 130.155 55.000 130.100 55.000 H 125.200 C 125.100 55.000 125.200 55.100 125.200 55.000 V 45.200 C 125.200 45.100 125.100 45.200 125.200 45.200 H 130.100 C 130.155 45.200 130.200 45.155 130.200 45.100 V 35.100 C 130.200 35.045 130.155 35.000 130.100 35.000 H 125.200 C 125.100 35.000 125.200 35.100 125.200 35.000 V 25.200 C 125.200 25.100 125.100 25.200 125.200 25.200 H 130.100 C 130.155 25.200 130.200 25.155 130.200 25.100 V 10.100 C 130.200 10.045 130.155 10.000 130.100 10.000 H 125.100 H 15.100 H 10.100 C 10.045 10.000 10.000 10.045 10.000 10.100 V 25.100 C 10.000 25.155 10.045 25.200 10.100 25.200 H 15.000 C 15.100 25.200 15.000 25.100 15.000 25.200 V 35.000 C 15.000 35.100 15.100 35.000 15.000 35.000 H 10.100 C 10.045 35.000 10.000 35.045 10.000 35.100 V 45.100 C 10.000 45.155 10.045 45.200 10.100 45.200 H 15.000 C 15.100 45.200 15.000 45.100 15.000 45.200 V 55.000 C 15.000 55.100 15.100 55.000 15.000 55.000 H 10.100 C 10.045 55.000 10.000 55.045 10.000 55.100 V 65.100 C 10.000 65.155 10.045 65.200 10.100 65.200 H 15.000 C 15.100 65.200 15.000 65.100 15.000 65.200 V 75.000 C 15.000 75.100 15.100 75.000 15.000 75.000 H 10.100 C 10.045 75.000 10.000 75.045 10.000 75.100 V 85.100 C 10.000 85.155 10.045 85.200 10.100 85.200 H 15.000 C 15.100 85.200 15.000 85.100 15.000 85.200 V 95.000 C 15.000 95.100 15.100 95.000 15.000 95.000 H 10.100 C 10.045 95.000 10.000 95.045 10.000 95.100 V 105.100 C 10.000 105.155 10.045 105.200 10.100 105.200 H 15.000 C 15.100 105.200 15.000 105.100 15.000 105.200 V 115.000 C 15.000 115.100 15.100 115.000 15.000 115.000 H 10.100 C 10.045 115.000 10.000 115.045 10.000 115.100 V 130.100 C 10.000 130.155 10.045 130.200 10.100 130.200 H 15.100 Z" stroke="rgb(0,0,0)" stroke-width="0.20" />
</g>
<g id="p-3" style="fill:none;stroke-linecap:round;stroke-linejoin:round;">
  <path d="M 137.800 252.900 H 247.800 C 247.855 252.900 247.900 252.855 247.900 252.800 V 237.900 C 247.900 237.800 247.800 237.900 247.900 237.900 H 252.800 C 252.855 237.900 252.900 237.855 252.900 237.800 V 227.800 C 252.900 227.745 252.855 227.700 252.800 227.700 H 247.900 C 247.800 227.700 247.900 227.800 247.900 227.700 V 217.900 C 247.900 217.800 247.800 217.900 247.900 217.900 H 252.800 C 252.855 217.900 252.900 217.855 252.900 217.800 V 207.800 C 252.900 207.745 252.855 207.700 252.800 207.700 H 247.900 C 247.800 207.700 247.900 207.800 247.900 207.700 V 197.900 C 247.900 197.800 247.800 197.900 247.900 197.900 H 252.800 C 252.855 197.900 252.900 197.855 252.900 197.800 V 187.800 C 252.900 187.745 252.855 187.700 252.800 187.700 H 247.900 C 247.800 187.700 247.900 187.800 247.900 187.700 V 177.900 C 247.900 177.800 247.800 177.900 247.900 177.900 H 252.800 C 252.855 177.900 252.900 177.855 252.900 177.800 V 167.800 C 252.900 167.745 252.855 167.700 252.800 167.700 H 247.900 C 247.800 167.700 247.900 167.800 247.900 167.700 V 157.900 C 247.900 157.800 247.800 157.900 247.900 157.900 H 252.800 C 252.855 157.900 252.900 157.855 252.900 157.800 V 147.800 C 252.900 147.745 252.855 147.700 252.800 147.700 H 247.900 C 247.800 147.700 247.900 147.800 247.900 147.700 V 132.800 C 247.900 132.745 247.855 132.700 247.800 132.700 H 137.800 C 137.745 132.700 137.700 132.745 137.700 132.800 V 147.700 C 137.700 147.800 137.800 147.700 137.700 147.700 H 132.800 C 132.745 147.700 132.700 147.745 132.700 147.800 V 157.800 C 132.700 157.855 132.745 157.900 132.800 157.900 H 137.700 C 137.800 157.900 137.700 157.800 137.700 157.900 V 167.700 C 137.700 167.800 137.800 167.700 137.700 167.700 H 132.800 C 132.745 167.700 132.700 167.745 132.700 167.800 V 177.800 C 132.700 177.855 132.745 177.900 132.800 177.900 H 137.700 C 137.800 177.900 137.700 177.800 137.700 177.900 V 187.700 C 137.700 187.800 137.800 187.700 137.700 187.700 H 132.800 C 132.745 187.700 132.700 187.745 132.700 187.800 V 197.800 C 132.700 197.855 132.745 197.900 132.800 197.900 H 137.700 C 137.800 197.900 137.700 197.800 137.700 197.900 V 207.700 C 137.700 207.800 137.800 207.700 137.700 207.700 H 132.800 C 132.745 207.700 132.700 207.745 132.700 207.800 V 217.800 C 132.700 217.855 132.745 217.900 132.800 217.900 H 137.700 C 137.800 217.900 137.700 217.800 137.700 217.900 V 227.700 C 137.700 227.800 137.800 227.700 137.700 227.700 H 132.800 C 132.745 227.700 132.700 227.745 132.700 227.800 V 237.800 C 132.700 237.855 132.745 237.900 132.800 237.900 H 137.700 C 137.800 237.900 137.700 237.800 137.700 237.900 V 252.800 C 137.700 252.855 137.745 252.900 137.800 252.900 Z" stroke="rgb(0,0,0)" stroke-width="0.20" />
</g>
<g id="p-4" style="fill:none;stroke-linecap:round;stroke-linejoin:round;">
  <path d="M 137.800 130.200 H 247.800 C 247.855 130.200 247.900 130.155 247.900 130.100 V 115.200 C 247.900 115.100 247.800 115.200 247.900 115.200 H 252.800 C 252.855 115.200 252.900 115.155 252.900 115.100 V 105.100 C 252.900 105.045 252.855 105.000 252.800 105.000 H 247.900 C 247.800 105.000 247.900 105.100 247.900 105.000 V 95.200 C 247.900 95.100 247.800 95.200 247.900 95.200 H 252.800 C 252.855 95.200 252.900 95.155 252.900 95.100 V 85.100 C 252.900 85.045 252.855 85.000 252.800 85.000 H 247.900 C 247.800 85.000 247.900 85.100 247.900 85.000 V 75.200 C 247.900 75.100 247.800 75.200 247.900 75.200 H 252.800 C 252.855 75.200 252.900 75.155 252.900 75.100 V 65.100 C 252.900 65.045 252.855 65.000 252.800 65.000 H 247.900 C 247.800 65.000 247.900 65.100 247.900 65.000 V 55.200 C 247.900 55.100 247.800 55.200 247.900 55.200 H 252.800 C 252.855 55.200 252.900 55.155 252.900 55.100 V 45.100 C 252.900 45.045 252.855 45.000 252.800 45.000 H 247.900 C 247.800 45.000 247.900 45.100 247.900 45.000 V 35.200 C 247.900 35.100 247.800 35.200 247.900 35.200 H 252.800 C 252.855 35.200 252.900 35.155 252.900 35.100 V 25.100 C 252.900 25.045 252.855 25.000 252.800 25.000 H 247.900 C 247.800 25.000 247.900 25.100 247.900 25.000 V 10.100 C 247.900 10.045 247.855 10.000 247.800 10.000 H 137.800 C 137.745 10.000 137.700 10.045 137.700 10.100 V 25.000 C 137.700 25.100 137.800 25.000 137.700 25.000 H 132.800 C 132.745 25.000 132.700 25.045 132.700 25.100 V 35.100 C 132.700 35.155 132.745 35.200 132.800 35.200 H 137.700 C 137.800 35.200 137.700 35.100 137.700 35.200 V 45.000 C 137.700 45.100 137.800 45.000 137.700 45.000 H 132.800 C 132.745 45.000 132.700 45.045 132.700 45.100 V 55.100 C 132.700 55.155 132.745 55.200 132.800 55.200 H 137.700 C 137.800 55.200 137.700 55.100 137.700 55.200 V 65.000 C 137.700 65.100 137.800 65.000 137.700 65.000 H 132.800 C 132.745 65.000 132.700 65.045 132.700 65.100 V 75.100 C 132.700 75.155 132.745 75.200 132.800 75.200 H 137.700 C 137.800 75.200 137.700 75.100 137.700 75.200 V 85.000 C 137.700 85.100 137.800 85.000 137.700 85.000 H 132.800 C 132.745 85.000 132.700 85.045 132.700 85.100 V 95.100 C 132.700 95.155 132.745 95.200 132.800 95.200 H 137.700 C 137.800 95.200 137.700 95.100 137.700 95.200 V 105.000 C 137.700 105.100 137.800 105.000 137.700 105.000 H 132.800 C 132.745 105.000 132.700 105.045 132.700 105.100 V 115.100 C 132.700 115.155 132.745 115.200 132.800 115.200 H 137.700 C 137.800 115.200 137.700 115.100 137.700 115.200 V 130.100 C 137.700 130.155 137.745 130.200 137.800 130.200 Z" stroke="rgb(0,0,0)" stroke-width="0.20" />
</g>
</svg>